<svg width="80" height="108" viewBox="0 0 80 108" fill="none" xmlns="http://www.w3.org/2000/svg">
<g clip-path="url(#clip0_1_1136)">
<path d="M31.2851 23.3279C32.2179 24.0562 33.4843 24.383 34.6281 24.5532L36.6298 24.6825C34.7711 22.8854 32.4494 21.9733 29.9166 21.8439C30.3251 22.4021 30.7404 22.9195 31.2783 23.3347H31.2851V23.3279Z" fill="#67E8F9"/>
<path d="M49.7157 21.8235C47.7481 22.0618 45.7328 22.6608 44.1532 23.9541C43.8672 24.1924 43.5268 24.4715 43.2953 24.7642C43.343 24.7778 43.3906 24.805 43.4451 24.8118C45.5149 24.7165 47.7889 24.417 49.2528 22.7493C49.4843 22.4906 49.6885 22.1707 49.8451 21.8576C49.7634 21.8031 49.8111 21.8099 49.7157 21.8303V21.8235Z" fill="#67E8F9"/>
<path d="M35.2068 35.1246C36.1396 36.2341 37.8145 38.249 39.2511 38.5758C40.1158 38.7732 41.0077 38.5485 41.7294 38.0516C43.5404 36.8263 45.0315 34.9136 46.3524 33.1777C47.4962 31.5985 48.9055 29.9512 49.4026 28.0112C49.5319 27.5006 49.6204 26.9152 49.5524 26.3843L49.4911 26.078L49.4502 25.8942C47.2647 26.9356 44.7932 27.8682 42.3762 27.099C41.6204 26.8608 40.8511 26.4932 40.0477 26.4796C39.7821 26.4796 39.5166 26.534 39.2579 26.5749C38.5702 26.6906 37.9166 27.0446 37.2153 27.1875C35.3702 27.5619 33.8519 27.3509 32.1226 26.6089C31.6051 26.3843 31.0945 26.0916 30.5498 25.9146C30.2094 27.5483 30.6724 28.8689 31.5302 30.2235C32.6128 31.9457 33.8928 33.5726 35.2136 35.1178H35.2L35.2068 35.1246ZM45.0996 29.5972C45.6715 29.3454 46.2434 29.0595 46.7949 28.7395C47.2307 28.4877 47.6664 28.1745 48.1294 27.9771L48.2247 27.9635L48.2724 28.0248C48.0136 28.4741 47.6528 28.8552 47.2443 29.1548C46.5158 29.6993 45.2153 30.1146 44.3234 29.9784H44.2349L44.1941 29.9172C44.4868 29.8831 44.8136 29.7129 45.0928 29.5972H45.0996ZM33.4638 28.8348C34.2128 29.2773 35.0026 29.6313 35.806 29.9376V30.0329C35.3089 30.2099 34.526 29.9512 34.0358 29.781C33.0417 29.4338 32.2519 28.8689 31.7889 27.8818C32.3813 28.1201 32.9192 28.5217 33.4638 28.8348Z" fill="#67E8F9"/>
<path d="M17.103 30.6727C16.497 28.6442 15.6528 26.2549 16.6945 24.2196C17.2323 23.1713 18.1175 22.2388 18.9685 21.4355C19.9489 20.5029 21.0043 19.6657 22.0868 18.876C23.1489 18.1 24.3064 17.3581 25.2323 16.4051C26.4783 15.1253 27.4928 13.4916 28.4936 12.0009C28.8477 11.4904 29.1813 10.9186 29.583 10.4421C29.6919 10.3127 29.7941 10.2038 29.9506 10.1494L30.0528 10.1766C30.0255 10.5374 29.7668 11.0003 29.617 11.3202C28.8681 12.9199 27.9285 14.5467 26.9072 15.9762L25.8247 17.4125C25.634 17.6644 25.3958 17.9231 25.2596 18.209C25.8928 17.7188 26.5668 17.324 27.2681 16.9292C28.7796 16.0647 30.3387 15.3432 31.8979 14.5944L36.1055 12.6203C36.7115 12.3753 37.3243 12.1302 37.9575 11.9464C38.1617 11.8852 38.3592 11.8511 38.5634 11.8035C38.6043 11.7967 38.7609 11.7831 38.7949 11.7558C38.8221 11.7354 38.9243 11.1092 38.9379 11.0207C39.3123 8.19573 39.3464 5.30953 39.1217 2.46417C39.0672 1.7222 39.0332 0.810046 38.7472 0.136144C38.577 0.00680951 38.4068 -0.00680466 38.2026 0.0204237H38.1617C36.3915 0.258672 34.6553 0.810046 33.1711 1.87195C32.2928 2.50501 31.4485 3.41035 30.8017 4.28847C30.1141 5.22104 29.5489 6.22168 28.9838 7.23593L28.0306 8.99897C27.3634 10.34 26.7711 11.7286 25.8655 12.9267C25.2732 13.7163 24.64 14.4787 23.9047 15.1322C23.1013 15.8605 22.1889 16.4323 21.3447 17.1062C20.1396 18.0864 19.0366 19.1756 17.9677 20.326C16.9872 21.3674 15.9251 22.4974 15.3532 23.8384C14.9583 24.7642 14.8153 25.7852 14.9515 26.7791C15.183 28.4332 16.034 29.4815 17.1234 30.6387L17.103 30.6591V30.6727Z" fill="#67E8F9"/>
<path d="M41.2323 11.6061C43.5813 12.4638 45.8213 13.444 48.0817 14.5127C50.383 15.595 52.7592 16.759 54.8085 18.2838C53.3174 16.5753 52.0647 14.574 50.9889 12.5591C50.6145 11.8647 50.1855 11.1296 50.0221 10.34L50.063 10.2583C50.1174 10.2651 50.1787 10.2651 50.2264 10.2855C50.2809 10.3059 50.4102 10.4897 50.4511 10.5442L51.1455 11.5448L52.8953 14.1519C53.406 14.9211 53.9234 15.6699 54.5634 16.337C55.6119 17.4329 56.8647 18.2362 58.063 19.1211C59.1728 19.938 60.2417 20.8297 61.2562 21.7759C62.4817 22.9807 63.68 24.3489 63.7277 26.1937C63.7617 27.6163 63.4553 29.3249 62.8153 30.591C63.2647 30.169 63.714 29.7402 64.0749 29.2296C64.6468 28.4128 64.9804 27.2896 65.0145 26.2753C65.0962 24.2468 64.2179 22.7969 62.9174 21.3606C61.7328 20.0196 60.4392 18.6854 59.0638 17.5419C57.6545 16.371 56.0953 15.4249 54.9038 13.9954C53.5285 12.3481 52.7523 10.231 51.7923 8.31145C50.6281 6.00385 49.0009 3.38993 46.9038 1.86514C46.0187 1.22528 45.0587 0.789622 44.0306 0.476496C43.4043 0.279091 42.7166 0.0816853 42.0562 0.061264H41.423C41.1166 0.91215 41.0485 1.84472 40.9736 2.73645C40.8374 4.31569 40.8238 5.87451 40.8715 7.46057C40.9055 8.82198 40.994 10.2174 41.2392 11.572V11.5857L41.2323 11.6061Z" fill="#67E8F9"/>
<path d="M23.8025 20.0332C22.72 20.6595 21.6238 21.2789 20.623 22.0277C19.9081 22.5655 19.2204 23.2053 18.6893 23.9473C18.0017 24.9275 17.6953 26.1256 17.8791 27.3304C18.131 28.9641 19.0298 30.203 20.1191 31.3602C21.3787 32.7012 22.8562 33.8516 24.3268 34.9408C25.4434 35.7712 26.7302 36.52 27.7038 37.5207C27.3634 36.8263 27.0025 36.1184 26.594 35.4717C25.9404 34.4438 25.1506 33.5317 24.3949 32.5855L22.7268 30.4413C22.08 29.638 21.2562 28.8552 20.7796 27.9295C20.5413 27.4666 20.4459 26.8403 20.6093 26.3366C21.2357 24.3285 26.56 21.6261 28.3506 20.6867L30.8902 19.373L34.3217 17.8141C36.1464 17.0381 37.9506 16.3166 39.9523 16.3098C41.2255 16.337 42.383 16.6161 43.5881 17.0109C45.6987 17.6984 47.7072 18.6446 49.6885 19.6452L54.1208 22.0209C55.6936 22.9195 57.5659 23.9065 58.8119 25.2611C59.2068 25.6899 59.5336 26.2345 59.5064 26.8539C59.4859 27.31 59.2545 27.7865 59.0162 28.1677C58.5464 28.9233 57.8996 29.57 57.3413 30.2643L55.3804 32.8306L53.8145 34.8795C53.2834 35.6487 52.9225 36.5064 52.4596 37.3164L55.8434 34.9067C56.64 34.3009 57.3821 33.6134 58.1242 32.9395C59.806 31.4147 61.7123 29.7265 62.0528 27.2964C62.2366 26.0235 61.9574 24.9071 61.2221 23.8793C60.4732 22.8446 59.343 22.055 58.3081 21.347C54.2842 18.5765 49.8247 16.6297 45.3174 14.8735L42.5736 13.8592C41.9268 13.6414 41.2664 13.41 40.5787 13.3215C40.2791 13.2806 39.9591 13.267 39.6596 13.3078C37.5693 13.6346 35.5268 14.5127 33.5728 15.3159C30.2162 16.6842 26.9481 18.2021 23.7957 20.0264V20.0128L23.8025 20.0332Z" fill="#67E8F9"/>
<path d="M71.2579 46.7715C70.8153 45.7504 70.1957 44.8042 69.5353 43.8989C67.9489 41.7206 65.9336 39.6853 63.7209 38.1946C62.8085 37.5751 61.8213 37.0782 60.834 36.6153C59.697 36.0776 58.2604 35.3288 56.9736 35.6147C55.9796 35.8393 55.0604 36.3975 54.1617 36.8672C53.4604 37.2348 52.6162 37.5819 52.0511 38.1537C51.4111 38.7868 50.9413 39.5968 50.1923 40.1142C50.4238 39.1816 51.0026 38.4396 51.3838 37.5751C52.017 36.1388 52.4187 34.6413 52.8136 33.1165C52.9498 32.5923 53.12 32.0478 53.2085 31.5168C51.9353 33.5045 50.703 35.5943 49.2664 37.473L42.7711 45.342L41.1098 47.5611C40.7421 48.1057 40.4494 48.8204 39.9796 49.2765C39.36 48.2418 38.7813 47.2003 38.0664 46.2201C35.84 43.1365 33.1438 40.4341 30.8221 37.4254C29.9506 36.3022 29.1813 35.1246 28.4255 33.9129C27.874 33.0212 27.3294 32.1022 26.6962 31.265C27.1183 32.6536 27.3294 34.0899 27.84 35.4513L28.9566 38.0993C29.2698 38.7868 29.6375 39.4335 29.8349 40.1686C29.0315 39.5696 28.5345 38.6711 27.7787 38.0244C27.3906 37.6908 26.8664 37.4458 26.417 37.1803C25.4979 36.6357 24.5038 35.8938 23.4757 35.6215C22.9992 35.5058 22.5021 35.5194 22.0323 35.6011C20.766 35.8189 19.5813 36.3567 18.4443 36.9489C15.1898 38.6711 12.2417 41.1829 10.1243 44.2869C9.12341 45.7504 8.34724 47.4454 7.98639 49.2016C10.1583 48.0308 12.4323 47.4522 14.8221 47.0097C16.2179 46.7579 17.6204 46.5128 19.0298 46.4039C22.4613 46.1452 26.0221 46.4992 29.3175 47.5815C29.6987 47.7109 30.1685 47.9491 30.5634 47.9559C28.8204 46.9076 27.1387 45.7504 25.2392 45.0493C24.1021 44.6341 22.9175 44.4094 21.7192 44.3278C21.1609 44.2937 16.5311 44.2665 16.4358 44.1712C16.4153 44.1508 16.4153 44.1099 16.4017 44.0895C16.6128 43.9125 17.1779 43.9466 17.457 43.9397L20.446 43.9193C20.9498 43.9261 21.4536 44.0078 21.9643 43.9397C21.12 43.7764 19.7243 43.647 19.2 42.8506C19.0843 42.6736 19.0502 42.4354 19.0979 42.2244C19.1455 42.0201 19.2817 41.884 19.4587 41.7819C20.0647 41.4415 21.5013 42.027 22.1209 42.2448C24.463 43.048 26.6689 44.1984 28.7387 45.5666C29.4945 46.0704 30.2638 46.5741 30.9583 47.1527C32.1294 48.1261 33.1983 49.2289 34.2877 50.3248L37.3311 53.4697L39.0196 55.4778C39.3872 55.9338 39.7481 56.4171 40.1498 56.8392C41.1643 55.2735 42.417 53.8304 43.6562 52.4486C45.7532 50.1206 47.9728 47.847 50.5055 46.0159C52.2213 44.777 54.1345 43.7083 56.0749 42.8983C56.8783 42.5647 59.6698 41.4143 60.4051 41.7274C60.5821 41.8091 60.766 41.9793 60.834 42.1767C60.9089 42.3741 60.8749 42.626 60.8 42.8098C60.6162 43.225 60.0443 43.436 59.6426 43.5654L58.097 43.9738C58.6145 43.9942 59.1387 43.9261 59.663 43.9057H62.0255C62.5021 43.9057 63.0332 43.8853 63.4894 44.035C62.9583 44.1984 62.4477 44.2052 61.8894 44.2188L59.7992 44.2529C57.6272 44.3141 55.5779 44.6749 53.5898 45.6143C52.7864 45.9955 52.0306 46.4584 51.2749 46.9212C50.737 47.248 50.1243 47.5271 49.6136 47.8947L52.8953 46.9893C53.9643 46.7238 55.0741 46.5401 56.1634 46.4175C58.7779 46.1112 61.4672 46.3835 64.0613 46.7987C66.7438 47.2276 69.5898 47.8538 71.9728 49.2561C71.8026 48.4052 71.5915 47.5475 71.2443 46.7511L71.2306 46.7715H71.2579Z" fill="#67E8F9"/>
</g>
<path d="M4.89485 78.8392L2.23085 76.5592V63.4312L4.89485 61.1512H16.9188L19.5828 63.4312V67.4392L12.5508 67.4152V64.8232H9.07085V75.1672H11.4708L14.2548 72.8152H11.9268V69.1432H19.5828V78.8392H14.2788V77.3752L12.5268 78.8392H4.89485ZM20.3154 78.8392L24.2274 61.1512H36.0594L39.9474 78.8392H32.7954L32.3874 76.2232H27.8754L27.4674 78.8392H20.3154ZM28.5714 71.8792H31.6914L30.6354 65.2072H29.6274L28.5714 71.8792ZM40.6877 78.8392V61.1512H47.3117L50.6237 69.7672L53.9357 61.1512H60.5357V78.8392H54.3917V69.7192L51.9437 77.7352H49.3277L46.8317 69.6712V78.8392H40.6877ZM62.2098 78.8392V61.1512H77.6418V65.8792H69.0498V68.0872H76.6338V71.9032H69.0498V74.1112H77.6418V78.8392H62.2098Z" fill="#67E8F9"/>
<path d="M2.0636 107.839V81.3072H12.3236V100.351H22.9436V107.839H2.0636ZM28.4547 107.839L24.4587 104.419V84.7272L28.4547 81.3072H46.2027L50.1987 84.7272V104.419L46.2027 107.839H28.4547ZM34.7187 102.331H39.9387V86.8152H34.7187V102.331ZM55.9216 107.839L51.9256 104.419V84.7272L55.9216 81.3072H73.9576L77.9536 84.7272V90.7392L67.4056 90.7032V86.8152H62.1856V102.331H65.7856L69.9616 98.8032H66.4696V93.2952H77.9536V107.839H69.9976V105.643L67.3696 107.839H55.9216Z" fill="#67E8F9"/>
<defs>
<clipPath id="clip0_1_1136">
<rect width="64" height="56.8392" fill="white" transform="translate(8)"/>
</clipPath>
</defs>
</svg>
